<svg xmlns="http://www.w3.org/2000/svg" xmlns:xlink="http://www.w3.org/1999/xlink" fill = '#808080' version="1.1" x="0px" y="0px" viewBox="0 0 100 125" style="enable-background:new 0 0 100 100;" xml:space="preserve"><path d="M97.1964188,59.3348846l-4.8334732-22.5070305c-0.4796753-2.2875824-2.5274963-3.9295158-4.8888702-3.9295158H73.0289917  c-2.7487946,0-4.9810562,2.2322578-4.9810562,4.9810524v19.8320236h-9.0028267l6.0510521-12.9507332  c0.9962158-2.1031456,0.6641922-4.6305656-0.830162-6.438549l-6.4569397-7.7113781  c-0.1660461-0.20298-0.3874168-0.3874187-0.6457214-0.4981422L29.5276756,17.1802673  c-0.2583046-0.1106472-0.5165348-0.1659718-0.7933064-0.1844387c-0.0183907,0-0.0183907,0-0.0368576,0H18.6431503  c-2.3429813,0-4.4829836,1.3651638-5.4607277,3.4867001L6.9468555,33.8022919  c-0.977819,2.1216087-0.6641903,4.6305656,0.8486295,6.4384727l5.995729,7.1764526v10.2757339H9.8616962  c-3.9110508,0-7.0842152,3.1916084-7.0842152,7.0841942v4.9072647c0,3.09935,2.5274401,5.62677,5.6267948,5.62677h5.1839571  c0.5903997,4.3354034,4.3169374,7.6929932,8.799922,7.6929932s8.2095203-3.3575897,8.7998447-7.6929932h1.5312119  c0.5904007,4.3354034,4.3169365,7.6929932,8.7999229,7.6929932s8.2095184-3.3575897,8.7999191-7.6929932h0.3627243  c-0.0759697-0.0002213-4.8641739-0.002327,22.2549515-0.0184631c0.5904007,4.3354034,4.2984695,7.6929855,8.7999191,7.6929855  c4.5013809,0,8.2095261-3.3575821,8.7998505-7.6929855h1.697258c2.7488708,0,4.9811249-2.2322617,4.9811249-4.9810486v-10.5709  C97.2332764,59.5931892,97.2148819,59.4640007,97.1964188,59.3348846z M61.2958336,40.7757645  c0.5350037,0.6641884,0.6641159,1.5866089,0.2951622,2.3429832l-6.8074989,14.5742035h-8.412426l0.7379036-1.5865364  l9.6854095-20.717514L61.2958336,40.7757645z M29.6567898,21.4972057l24.1304951,11.2720165l-7.8405685,16.7695312  l-3.5420952,7.5270157L18.2925892,45.7937508L29.6567898,21.4972057z M34.6563072,57.6929512h-7.3424244v-3.4313774  L34.6563072,57.6929512z M23.4581547,52.4536667v5.2392845h-5.8112144v-7.9512177L23.4581547,52.4536667z M10.7471828,37.7687416  c-0.5349998-0.6457253-0.664115-1.5681419-0.2951622-2.3245163l6.2355671-13.3197632  c0.3504868-0.7563725,1.1253262-1.2545147,1.9739552-1.2545147h7.0288715L15.2486343,43.1556053L10.7471828,37.7687416z   M22.388155,79.1300507c-2.7857265,0-5.0364513-2.2691879-5.0364513-5.0364456c0-2.7672653,2.2691917-5.036377,5.0364513-5.036377  c2.7857246,0,5.036375,2.2691116,5.036375,5.036377C27.42453,76.8793259,25.1554146,79.1300507,22.388155,79.1300507z   M41.5191345,79.1300507c-2.7857285,0-5.0364532-2.2691879-5.0364532-5.0364456c0-2.7672653,2.2691917-5.036377,5.0364532-5.036377  c2.7857246,0,5.0363731,2.2691116,5.0363731,5.036377C46.5739746,76.8793259,44.3048592,79.1300507,41.5191345,79.1300507z   M68.0479355,71.4554596h-18.042511c-1.1254005-3.6158905-4.5014496-6.2539597-8.48629-6.2539597  s-7.3608932,2.6380692-8.4862938,6.2539597h-2.1584682c-1.1253262-3.6158905-4.5013771-6.2539597-8.4862175-6.2539597  s-7.3608923,2.6380692-8.4862928,6.2539597H8.4042759c-0.977819,0-1.771049-0.7932358-1.771049-1.7710495v-4.9072647  c0-1.7710495,1.4389539-3.2284698,3.2284694-3.2284698h58.1862411V71.4554596z M90.8316574,48.0998001l1.3467789,6.2724991  H82.917305c-1.4204941,0-2.5642853-1.1622581-2.5642853-2.6012878V45.94133c0-1.4204865,1.162262-2.5642776,2.5642853-2.5642776  h6.8997574L90.8316574,48.0998001z M81.755043,79.1300507c-2.7856522,0-5.036377-2.2691879-5.036377-5.0364456  c0-2.7672653,2.2691193-5.036377,5.036377-5.036377c2.7857285,0,5.0364532,2.2691116,5.0364532,5.036377  C86.7914963,76.8793259,84.5223007,79.1300507,81.755043,79.1300507z M92.2522202,71.4370651H90.241333  c-1.1253204-3.6158905-4.5013733-6.2355652-8.48629-6.2355652c-3.9848404,0-7.3608932,2.6196747-8.4862137,6.2355652h-1.3651657  V37.8609238c0-0.627182,0.4980698-1.1253242,1.1253281-1.1253242h14.4450836c0.5534668,0,0.9962082,0.3505592,1.1069336,0.8855591  l0.4058151,1.9186325h-6.0879135c-3.542099,0-6.4200821,2.8779068-6.4200821,6.4200058v5.8296814  c0,3.5605659,2.8779831,6.4384727,6.4200821,6.4384727h10.091217l0.3690262,1.7157249l0.0183945,10.3679924  C93.3775482,70.9389191,92.8794785,71.4370651,92.2522202,71.4370651z"/> </svg>
