<svg xmlns="http://www.w3.org/2000/svg" xmlns:xlink="http://www.w3.org/1999/xlink" version="1.1" x="0px" y="0px" viewBox="0 0 100 125" style="enable-background:new 0 0 100 100;" xml:space="preserve"><g><path d="M58.8652344,74.3540039c-3.0751953,0-5.5761719,2.5014648-5.5761719,5.5761719s2.5009766,5.5761719,5.5761719,5.5761719   s5.5761719-2.5014648,5.5761719-5.5761719S61.9404297,74.3540039,58.8652344,74.3540039z M58.8652344,82.5063477   c-1.4208984,0-2.5761719-1.1557617-2.5761719-2.5761719s1.1552734-2.5761719,2.5761719-2.5761719   s2.5761719,1.1557617,2.5761719,2.5761719S60.2861328,82.5063477,58.8652344,82.5063477z M45.1748047,74.3540039   c-3.0751953,0-5.5761719,2.5014648-5.5761719,5.5761719s2.5009766,5.5761719,5.5761719,5.5761719   s5.5761719-2.5014648,5.5761719-5.5761719S48.25,74.3540039,45.1748047,74.3540039z M45.1748047,82.5063477   c-1.4208984,0-2.5761719-1.1557617-2.5761719-2.5761719s1.1552734-2.5761719,2.5761719-2.5761719   s2.5761719,1.1557617,2.5761719,2.5761719S46.5957031,82.5063477,45.1748047,82.5063477z M86.2460938,74.3540039   c-3.0751953,0-5.5761719,2.5014648-5.5761719,5.5761719s2.5009766,5.5761719,5.5761719,5.5761719   s5.5761719-2.5014648,5.5761719-5.5761719S89.3212891,74.3540039,86.2460938,74.3540039z M86.2460938,82.5063477   c-1.4208984,0-2.5761719-1.1557617-2.5761719-2.5761719s1.1552734-2.5761719,2.5761719-2.5761719   s2.5761719,1.1557617,2.5761719,2.5761719S87.6669922,82.5063477,86.2460938,82.5063477z M72.5556641,74.3540039   c-3.0751953,0-5.5761719,2.5014648-5.5761719,5.5761719s2.5009766,5.5761719,5.5761719,5.5761719   s5.5761719-2.5014648,5.5761719-5.5761719S75.6308594,74.3540039,72.5556641,74.3540039z M72.5556641,82.5063477   c-1.4208984,0-2.5761719-1.1557617-2.5761719-2.5761719s1.1552734-2.5761719,2.5761719-2.5761719   s2.5761719,1.1557617,2.5761719,2.5761719S73.9765625,82.5063477,72.5556641,82.5063477z M93.0971069,71.0679932   c0.0028076-0.0375977,0.0112915-0.0736084,0.0112915-0.1119385V58.046875c0-0.8286133-0.671875-1.5-1.5-1.5H69.5830078V33.5878906   c0-0.8286133-0.671875-1.5-1.5-1.5H51.1318359c-0.4902344,0-0.9501953,0.2397461-1.2304688,0.6425781l-1.737793,2.4943848   L27.4712524,12.4202881c-1.3430786-1.7158203-3.4274902-2.824585-5.7700806-2.824585   c-2.7839355,0-5.210144,1.5604858-6.4511108,3.852417c-0.0037231,0.0073242-0.0091553,0.0131836-0.0127563,0.0206299   L2.6798706,39.2635498c-0.3809814,0.6213989-0.6121826,1.3365479-0.6629028,2.1046753   c-0.0200195,0.0977783-0.0306396,0.1989746-0.0306396,0.3026733v16.5234375   c0,6.4672852,5.2617188,11.7285156,11.7285156,11.7285156h16.0546875c0.5761719,0,1.1015625-0.3300781,1.3515625-0.8486328   c0.25-0.519043,0.1806641-1.1352539-0.1787109-1.5859375L11.3232422,42.8603516l11.3079834-17.6973267L38.3125,50.265625   v20.6904297c0,0.0383301,0.0084839,0.0743408,0.0112915,0.1119385c-2.9476929,1.8552856-4.9165649,5.1293335-4.9165649,8.8621826   c0,5.7753906,4.6982422,10.4741211,10.4736328,10.4741211h43.6591797c5.7753906,0,10.4736328-4.6987305,10.4736328-10.4741211   C98.0136719,76.1973267,96.0447998,72.9232788,93.0971069,71.0679932z M28.8751831,18.4326782l17.5286255,19.3179321   l-6.5227051,9.3623047L25.0831909,23.4244385C26.9979248,22.423645,28.4196167,20.6054077,28.8751831,18.4326782z    M41.3125,50.3061523l7.1554565-10.2705078h11.7019653v14.3935547H41.3125V50.3061523z M21.7011719,12.5957031   c1.1365967,0,2.1643677,0.4494629,2.9378662,1.168396l0.4346313,0.4790039   c0.5905151,0.7403564,0.9585571,1.6652832,0.9585571,2.6836548c0,2.3881836-1.9433594,4.3310547-4.3310547,4.3310547   s-4.3310547-1.9428711-4.3310547-4.3310547S19.3134766,12.5957031,21.7011719,12.5957031z M6.6220703,40.0356445   c0.9013672,0,1.6347656,0.7333984,1.6347656,1.6352539s-0.7333984,1.6357422-1.6347656,1.6357422   c-0.9023438,0-1.6357422-0.7338867-1.6357422-1.6357422c0-0.1516724,0.0274048-0.2957153,0.0662231-0.4351807   c0.0038452-0.0075073,0.0101318-0.0127563,0.013855-0.0203857l0.2567749-0.5274658   C5.6220703,40.2941895,6.0903931,40.0356445,6.6220703,40.0356445z M26.6572266,66.9228516H13.7148438   c-4.8125,0-8.7285156-3.9155273-8.7285156-8.7285156V45.9937744c0.510498,0.1938477,1.0579834,0.3128662,1.6357422,0.3128662   c1.0679321,0,2.0403442-0.3778076,2.8248901-0.9870605L26.6572266,66.9228516z M10.3027954,38.8855591   c-0.7591553-1.0005493-1.9081421-1.6724854-3.2241211-1.8037109l8.1450195-16.7310791   c0.9449463,1.7802734,2.6027222,3.1206055,4.5896606,3.6515503L10.3027954,38.8855591z M41.3125,57.4291992h20.3574219   c0.828125,0,1.5-0.6713867,1.5-1.5V38.5356445c0-0.8286133-0.671875-1.5-1.5-1.5H50.5580444l1.3569946-1.9477539h14.6679688   V58.046875c0,0.8286133,0.671875,1.5,1.5,1.5h22.0253906v10.2409668c-0.8234863-0.2088013-1.6808472-0.3317871-2.5683594-0.3317871   H43.8808594c-0.8875122,0-1.744873,0.1229858-2.5683594,0.3317871V57.4291992z M87.5400391,87.4042969H43.8808594   c-4.1210938,0-7.4736328-3.3530273-7.4736328-7.4741211s3.3525391-7.4741211,7.4736328-7.4741211h43.6591797   c4.1210938,0,7.4736328,3.3530273,7.4736328,7.4741211S91.6611328,87.4042969,87.5400391,87.4042969z M56.7890625,60.4995117   c0-0.8286133,0.671875-1.5,1.5-1.5h3.3808594c0.828125,0,1.5,0.6713867,1.5,1.5s-0.671875,1.5-1.5,1.5h-3.3808594   C57.4609375,61.9995117,56.7890625,61.328125,56.7890625,60.4995117z"/></g></svg>
