<svg xmlns="http://www.w3.org/2000/svg" xmlns:xlink="http://www.w3.org/1999/xlink" fill="#808080" version="1.1" x="0px" y="0px" viewBox="0 0 64 80" style="enable-background:new 0 0 64 64;" xml:space="preserve"><g><path d="M56,38h-8v-4V8c0-0.6-0.4-1-1-1s-1,0.4-1,1v1h-6V8c0-0.6-0.4-1-1-1s-1,0.4-1,1v26v4H26v-4V8c0-0.6-0.4-1-1-1s-1,0.4-1,1v1   h-6V8c0-0.6-0.4-1-1-1s-1,0.4-1,1v26v4H8c-0.6,0-1,0.4-1,1v17c0,0.6,0.4,1,1,1h48c0.6,0,1-0.4,1-1V39C57,38.4,56.6,38,56,38z    M46,31.6L41.4,27H46V31.6z M44.6,33H40v-4.6L44.6,33z M46,23.6L41.4,19H46V23.6z M44.6,25H40v-4.6L44.6,25z M39,45h8h3v4H36v-4H39   z M40,43v-8h6v8H40z M46,11v4.6L41.4,11H46z M44.6,17H40v-4.6L44.6,17z M24,31.6L19.4,27H24V31.6z M22.6,33H18v-4.6L22.6,33z    M24,23.6L19.4,19H24V23.6z M22.6,25H18v-4.6L22.6,25z M17,45h8h3v4H14v-4H17z M18,43v-8h6v8H18z M24,11v4.6L19.4,11H24z M22.6,17   H18v-4.6L22.6,17z M55,55H9V40h7v3h-3c-0.6,0-1,0.4-1,1v6c0,0.6,0.4,1,1,1h16c0.6,0,1-0.4,1-1v-6c0-0.6-0.4-1-1-1h-3v-3h12v3h-3   c-0.6,0-1,0.4-1,1v6c0,0.6,0.4,1,1,1h16c0.6,0,1-0.4,1-1v-6c0-0.6-0.4-1-1-1h-3v-3h7V55z"/><path d="M13.7,52.3c-0.2-0.2-0.6-0.3-0.9-0.3c-0.1,0-0.1,0-0.2,0.1c-0.1,0-0.1,0.1-0.2,0.1c-0.1,0-0.1,0.1-0.1,0.1   c-0.1,0.1-0.2,0.2-0.2,0.3c0,0.1-0.1,0.3-0.1,0.4c0,0.1,0,0.1,0,0.2c0,0.1,0,0.1,0.1,0.2c0,0.1,0.1,0.1,0.1,0.2   c0,0,0.1,0.1,0.1,0.1c0,0,0.1,0.1,0.1,0.1c0.1,0,0.1,0.1,0.2,0.1c0.1,0,0.1,0,0.2,0.1c0.1,0,0.1,0,0.2,0c0.3,0,0.5-0.1,0.7-0.3   c0-0.1,0.1-0.1,0.1-0.1c0-0.1,0.1-0.1,0.1-0.2c0-0.1,0-0.1,0.1-0.2c0-0.1,0-0.1,0-0.2c0-0.1,0-0.3-0.1-0.4   C13.9,52.5,13.8,52.4,13.7,52.3z"/><circle cx="22.5" cy="53" r="1"/><circle cx="41.5" cy="53" r="1"/><circle cx="32" cy="53" r="1"/><path d="M51.7,52.3c-0.1-0.1-0.2-0.2-0.3-0.2c-0.4-0.1-0.8-0.1-1.1,0.2c-0.1,0.1-0.2,0.2-0.2,0.3c0,0.1-0.1,0.3-0.1,0.4   c0,0.3,0.1,0.5,0.3,0.7c0.2,0.2,0.4,0.3,0.7,0.3c0.1,0,0.3,0,0.4-0.1c0.1-0.1,0.2-0.1,0.3-0.2c0.2-0.2,0.3-0.5,0.3-0.7   c0-0.1,0-0.3-0.1-0.4C51.9,52.5,51.8,52.4,51.7,52.3z"/></g></svg>
