<svg xmlns="http://www.w3.org/2000/svg" xmlns:xlink="http://www.w3.org/1999/xlink" fill = 'white' version="1.1" x="0px" y="0px" viewBox="0 0 66 82.5" style="enable-background:new 0 0 66 66;" xml:space="preserve"><path d="M47.22,45.03H23.36c-0.53,0-0.95,0.43-0.95,0.95s0.43,0.95,0.95,0.95h23.86c0.53,0,0.95-0.43,0.95-0.95  S47.75,45.03,47.22,45.03z"/><path d="M47.22,50.77H23.36c-0.53,0-0.95,0.43-0.95,0.95s0.43,0.95,0.95,0.95h23.86c0.53,0,0.95-0.43,0.95-0.95  S47.75,50.77,47.22,50.77z"/><path d="M55.86,1.5H10.14c-2.63,0-4.77,2.14-4.77,4.77v53.45c0,2.63,2.14,4.77,4.77,4.77h45.71c2.63,0,4.77-2.14,4.77-4.77V6.27  C60.63,3.64,58.49,1.5,55.86,1.5z M58.72,59.73c0,1.58-1.28,2.86-2.86,2.86H10.14c-1.58,0-2.86-1.28-2.86-2.86V6.27  c0-1.58,1.28-2.86,2.86-2.86h45.71c1.58,0,2.86,1.28,2.86,2.86V59.73z"/><path d="M52.99,6.27H16.31c-1.58,0-2.86,1.28-2.86,2.86v4.59c-1.89,0.44-3.3,2.12-3.3,4.14v5.83c0,2.02,1.42,3.7,3.3,4.14v10.31  c-1.89,0.44-3.3,2.13-3.3,4.15v5.82c0,2.02,1.42,3.7,3.3,4.14v4.59c0,1.58,1.28,2.86,2.86,2.86h36.68c1.58,0,2.86-1.28,2.86-2.86  V9.14C55.86,7.56,54.57,6.27,52.99,6.27z M12.05,23.7v-5.83c0-1.29,1.05-2.35,2.35-2.35c0.62,0,1.22,0.25,1.66,0.68  c0.44,0.45,0.69,1.04,0.69,1.67v5.83c0,1.29-1.05,2.35-2.35,2.35S12.05,25,12.05,23.7z M12.05,48.13v-5.82  c0-1.3,1.05-2.36,2.35-2.36c0.63,0,1.22,0.25,1.66,0.69c0.44,0.44,0.68,1.03,0.68,1.66v5.82c0,1.29-1.05,2.35-2.35,2.35  S12.05,49.42,12.05,48.13z M53.95,56.86c0,0.53-0.43,0.95-0.95,0.95H16.31c-0.53,0-0.95-0.43-0.95-0.95v-4.59  c1.89-0.44,3.3-2.12,3.3-4.14v-5.82c0-1.14-0.44-2.21-1.24-3.01c-0.58-0.58-1.29-0.96-2.06-1.13V27.84c1.89-0.44,3.3-2.12,3.3-4.14  v-5.83c0-1.13-0.44-2.2-1.25-3.02c-0.58-0.57-1.29-0.94-2.05-1.12v-4.6c0-0.53,0.43-0.95,0.95-0.95h36.68  c0.53,0,0.95,0.43,0.95,0.95V56.86z"/><path d="M45.31,34.31c1.06,0,1.99-0.55,2.5-1.47c0.51-0.92,0.49-2.01-0.09-2.93L37.08,13.95c-0.53-0.85-1.44-1.35-2.43-1.35  c-1,0-1.91,0.51-2.42,1.33L21.56,29.94c-0.56,0.9-0.58,1.98-0.07,2.9c0.51,0.92,1.45,1.47,2.5,1.47H45.31z M23.16,31.91  c-0.08-0.15-0.24-0.54,0.01-0.94l10.67-16.01c0.25-0.41,0.65-0.45,0.81-0.45c0.16,0,0.56,0.04,0.83,0.48l10.64,15.96  c0.27,0.43,0.11,0.82,0.02,0.97c-0.08,0.15-0.33,0.49-0.84,0.49H24C23.49,32.4,23.24,32.06,23.16,31.91z"/><path d="M47.22,39.29H23.36c-0.53,0-0.95,0.43-0.95,0.95c0,0.53,0.43,0.95,0.95,0.95h23.86c0.53,0,0.95-0.43,0.95-0.95  C48.17,39.71,47.75,39.29,47.22,39.29z"/><path d="M32.59,25.29h2.65l-1.84,4.16c-0.21,0.48,0.01,1.05,0.49,1.26c0.13,0.05,0.26,0.08,0.38,0.08c0.37,0,0.72-0.21,0.87-0.57  l2.43-5.5c0.13-0.3,0.1-0.64-0.07-0.91c-0.18-0.27-0.48-0.43-0.8-0.43h-2.6l1.89-3.98c0.23-0.48,0.02-1.05-0.45-1.27  c-0.48-0.22-1.05-0.02-1.27,0.45l-2.53,5.34c-0.14,0.3-0.12,0.64,0.06,0.92C31.96,25.12,32.27,25.29,32.59,25.29z"/></svg>
