<?xml version="1.0" encoding="UTF-8" standalone="no"?>
<svg
   version="1.1"
   x="0px"
   y="0px"
   viewBox="0 0 64 80"
   style="enable-background:new 0 0 64 64;"
   xml:space="preserve"
   id="svg1961"
   sodipodi:docname="metals.svg"
   inkscape:version="1.2.1 (9c6d41e410, 2022-07-14)"
   xmlns:inkscape="http://www.inkscape.org/namespaces/inkscape"
   xmlns:sodipodi="http://sodipodi.sourceforge.net/DTD/sodipodi-0.dtd"
   xmlns="http://www.w3.org/2000/svg"
   xmlns:svg="http://www.w3.org/2000/svg"><defs
     id="defs1965" /><sodipodi:namedview
     id="namedview1963"
     pagecolor="#ffffff"
     bordercolor="#000000"
     borderopacity="0.25"
     inkscape:showpageshadow="2"
     inkscape:pageopacity="0.0"
     inkscape:pagecheckerboard="0"
     inkscape:deskcolor="#d1d1d1"
     showgrid="false"
     inkscape:zoom="10.4625"
     inkscape:cx="32.640382"
     inkscape:cy="39.617682"
     inkscape:window-width="2424"
     inkscape:window-height="994"
     inkscape:window-x="3193"
     inkscape:window-y="0"
     inkscape:window-maximized="0"
     inkscape:current-layer="svg1961" /><style
     type="text/css"
     id="style1951">
	.st0{display:none;}
	.st1{display:inline;}
</style><g
     id="g1955"
     style="fill:#808080"><path
       d="M60.895,41.553C60.725,41.214,60.379,41,60,41h-2V22h2c0.352,0,0.677-0.185,0.857-0.485l3-5   c0.186-0.309,0.19-0.693,0.013-1.008C63.692,15.193,63.36,15,63,15H22H1c-0.36,0-0.692,0.193-0.87,0.507   c-0.178,0.314-0.173,0.699,0.013,1.008l3,5C3.323,21.815,3.648,22,4,22h2v19H4c-0.379,0-0.725,0.214-0.895,0.553l-3,6   c-0.155,0.31-0.139,0.678,0.044,0.973S0.653,49,1,49h21h41c0.347,0,0.668-0.18,0.851-0.475s0.199-0.663,0.044-0.973L60.895,41.553z    M19,41h-2V22h2h37v19H19z M59.434,20H57H20.766l1.8-3h38.667L59.434,20z M2.618,47l2-4H7c0.553,0,1-0.447,1-1V21   c0-0.553-0.447-1-1-1H4.566l-1.8-3h17.467l-1.8,3H16c-0.553,0-1,0.447-1,1v21c0,0.553,0.447,1,1,1h2.382l2,4H2.618z M22.618,47   l-2-4H57h2.382l2,4H22.618z"
       id="path1953"
       style="fill:#808080" /></g></svg>
