<?xml version="1.0" encoding="UTF-8" standalone="no"?>
<svg
   data-name="Layer 2"
   viewBox="0 0 128 160"
   x="0px"
   y="0px"
   version="1.1"
   id="svg20"
   sodipodi:docname="mining_pickaxe.svg"
   inkscape:version="1.2.1 (9c6d41e410, 2022-07-14)"
   xmlns:inkscape="http://www.inkscape.org/namespaces/inkscape"
   xmlns:sodipodi="http://sodipodi.sourceforge.net/DTD/sodipodi-0.dtd"
   xmlns="http://www.w3.org/2000/svg"
   xmlns:svg="http://www.w3.org/2000/svg">
  <defs
     id="defs24" />
  <sodipodi:namedview
     id="namedview22"
     pagecolor="#ffffff"
     bordercolor="#000000"
     borderopacity="0.25"
     inkscape:showpageshadow="2"
     inkscape:pageopacity="0.0"
     inkscape:pagecheckerboard="0"
     inkscape:deskcolor="#d1d1d1"
     showgrid="false"
     inkscape:zoom="3.6948106"
     inkscape:cx="52.100099"
     inkscape:cy="81.600934"
     inkscape:window-width="1278"
     inkscape:window-height="1008"
     inkscape:window-x="3193"
     inkscape:window-y="0"
     inkscape:window-maximized="0"
     inkscape:current-layer="svg20" />
  <path
     d="M11.79,116.08c4,3.99,10.59,3.91,14.49-.32l56.53-61.1c15.36,15.32,18.65,17.52,27.59,37.97,2.19,5,9.17,2.85,8.72,.24l-.91-5.29c-2.63-15.3-9.7-29.22-20.45-40.37,2.15-2.15,2.08-2.06,2.18-2.2,.05-.06,4.71-6.46-2.86-14.01-7.57-7.55-13.98-2.9-14.04-2.85-.12,.09-.01,0-2.21,2.18-11.18-10.73-25.14-17.78-40.48-20.4-5.68-.97-5.89-1.21-6.62-.49-2.55,2.54-1.74,6.86,1.56,8.29,19.47,8.46,21.41,10.89,38.07,27.51L12.11,101.61c-4.2,3.86-4.36,10.43-.32,14.46Zm103.47-27.99l.75,4.39c-.4,.2-.86,.26-1.33,.17-1.45-.27-1.43-.98-4.02-6.91-6.44-14.74-14.56-22.06-21.99-29.47h0s6.97-6.95,6.97-6.95c0,.47,15.28,13.59,19.61,38.77Zm-30.36-57.58c6.08-3.91,16.6,6.63,12.69,12.64l-11.04,11.01-12.68-12.65,11.03-11Zm-13.15,8.88c-12.27-12.23-15.6-15.87-35.26-24.41-1.16-.5-1.55-1.84-1.05-2.85l4.4,.75c14.73,2.52,28.13,9.27,38.87,19.55,0,.1,.69-.69-6.97,6.95ZM14.14,103.82l61.35-56.46,5.2,5.18L24.08,113.72c-2.65,2.86-7.25,3.14-10.17,.23-2.82-2.81-2.74-7.4,.23-10.13Z"
     id="path14"
     style="fill:#ffffff" />
</svg>
