<?xml version="1.0" encoding="UTF-8" standalone="no"?>
<svg
   version="1.1"
   x="0px"
   y="0px"
   viewBox="0 0 64 80"
   enable-background="new 0 0 64 64"
   xml:space="preserve"
   id="svg3590"
   sodipodi:docname="mining.svg"
   inkscape:version="1.2.1 (9c6d41e410, 2022-07-14)"
   xmlns:inkscape="http://www.inkscape.org/namespaces/inkscape"
   xmlns:sodipodi="http://sodipodi.sourceforge.net/DTD/sodipodi-0.dtd"
   xmlns="http://www.w3.org/2000/svg"
   xmlns:svg="http://www.w3.org/2000/svg"><defs
     id="defs3594" /><sodipodi:namedview
     id="namedview3592"
     pagecolor="#ffffff"
     bordercolor="#000000"
     borderopacity="0.25"
     inkscape:showpageshadow="2"
     inkscape:pageopacity="0.0"
     inkscape:pagecheckerboard="0"
     inkscape:deskcolor="#d1d1d1"
     showgrid="false"
     inkscape:zoom="10.4625"
     inkscape:cx="32.353644"
     inkscape:cy="41.81601"
     inkscape:window-width="1972"
     inkscape:window-height="862"
     inkscape:window-x="3204"
     inkscape:window-y="11"
     inkscape:window-maximized="0"
     inkscape:current-layer="svg3590" /><path
     d="M61.717,24.625c-0.282-0.391-0.734-0.623-1.217-0.623h-0.057c-0.1-1.405-1.069-2.822-2.909-4.215  c-1.304-0.988-2.552-1.494-3.549-1.794c4.085-3.7,3.229-6.201-1.305-11.647c-1.698-2.042-3.072-2.968-4.478-2.916  C46.7,3.457,45.84,4.57,45.325,5.235c-0.007,0.009-0.015,0.019-0.022,0.029c-0.293-0.228-0.532-0.519-0.888-0.953  c-0.45-0.549-1.011-1.233-1.922-2.038c-0.567-0.503-1.383-0.708-2.417-0.615c-4.283,0.388-14.705,6.403-17.7,10.216  c-1.479,1.884-2.843,1.42-6.458-1.036c-0.651-0.442-1.324-0.899-1.985-1.286c-0.733-0.428-1.577-0.481-2.376-0.147  c-3.203,1.341-5.981,10.437-7.102,14.597H3.5c-0.482,0-0.935,0.232-1.217,0.623c-0.282,0.391-0.359,0.894-0.206,1.351L8.214,44.39  c-2.481,1.81-4.103,4.73-4.103,8.03c0,5.483,4.461,9.944,9.944,9.944c4.973,0,9.092-3.673,9.819-8.445h16.25  c0.728,4.772,4.847,8.445,9.819,8.445c5.483,0,9.944-4.461,9.944-9.944c0-3.299-1.621-6.22-4.103-8.03l6.137-18.413  C62.075,25.52,61.999,25.017,61.717,24.625z M12.585,12.241c0.523,0.315,1.07,0.687,1.646,1.079  c2.81,1.909,7.057,4.793,10.503,0.408C27.746,9.895,38.515,4.35,40.629,4.63c0.658,0.597,1.068,1.097,1.466,1.583  c0.641,0.782,1.246,1.521,2.47,2.087c1.611,0.745,2.677-0.64,3.135-1.23c0.159-0.206,0.455-0.589,0.557-0.64  c0.006,0,0.622,0.037,2.118,1.835c4.286,5.149,3.846,5.536,1.396,7.683c-1.146,1.006-2.137,1.874-1.831,3.099  c0.277,1.111,1.329,1.359,2.175,1.558c0.937,0.221,2.22,0.522,3.609,1.575c1.188,0.899,1.563,1.514,1.683,1.823H7.568  C9.209,18.167,11.387,13.018,12.585,12.241z M14.056,59.364c-3.829,0-6.944-3.115-6.944-6.944s3.115-6.944,6.944-6.944  S21,48.591,21,52.42S17.885,59.364,14.056,59.364z M49.944,59.364c-3.829,0-6.944-3.115-6.944-6.944s3.115-6.944,6.944-6.944  s6.944,3.115,6.944,6.944S53.773,59.364,49.944,59.364z M53.09,42.993c-0.99-0.331-2.046-0.518-3.146-0.518  c-4.972,0-9.091,3.672-9.818,8.443H23.874c-0.727-4.771-4.847-8.443-9.818-8.443c-1.1,0-2.155,0.187-3.145,0.518l-5.33-15.991h0.027  c0.001,0,0.002,0,0.004,0c0.001,0,0.002,0,0.003,0h52.804L53.09,42.993z"
     id="path3572"
     style="fill:#ffffff" /><path
     d="M14.5,40.125c0.829,0,1.5-0.672,1.5-1.5V30.5c0-0.829-0.671-1.5-1.5-1.5S13,29.671,13,30.5v8.125  C13,39.453,13.671,40.125,14.5,40.125z"
     id="path3574"
     style="fill:#ffffff" /><path
     d="M49.5,40.125c0.828,0,1.5-0.672,1.5-1.5V30.5c0-0.829-0.672-1.5-1.5-1.5S48,29.671,48,30.5v8.125  C48,39.453,48.672,40.125,49.5,40.125z"
     id="path3576"
     style="fill:#ffffff" /><path
     d="M42.5,40.125c0.828,0,1.5-0.672,1.5-1.5V30.5c0-0.829-0.672-1.5-1.5-1.5S41,29.671,41,30.5v8.125  C41,39.453,41.672,40.125,42.5,40.125z"
     id="path3578"
     style="fill:#ffffff" /><path
     d="M35.5,40.125c0.828,0,1.5-0.672,1.5-1.5V30.5c0-0.829-0.672-1.5-1.5-1.5S34,29.671,34,30.5v8.125  C34,39.453,34.672,40.125,35.5,40.125z"
     id="path3580"
     style="fill:#ffffff" /><path
     d="M28.5,40.125c0.829,0,1.5-0.672,1.5-1.5V30.5c0-0.829-0.671-1.5-1.5-1.5S27,29.671,27,30.5v8.125  C27,39.453,27.671,40.125,28.5,40.125z"
     id="path3582"
     style="fill:#ffffff" /><path
     d="M21.5,40.125c0.829,0,1.5-0.672,1.5-1.5V30.5c0-0.829-0.671-1.5-1.5-1.5S20,29.671,20,30.5v8.125  C20,39.453,20.671,40.125,21.5,40.125z"
     id="path3584"
     style="fill:#ffffff" /></svg>
