<svg xmlns="http://www.w3.org/2000/svg" xmlns:xlink="http://www.w3.org/1999/xlink" fill = 'white' version="1.1" x="0px" y="0px" viewBox="0 0 512 640" style="enable-background:new 0 0 512 512;" xml:space="preserve"><style type="text/css">
	.st0{fill:none;}
</style><g><path class="st0" d="M256,136.29c-66.01,0-119.71,53.7-119.71,119.71c0,66,53.7,119.7,119.71,119.7S375.71,322,375.71,256   C375.71,190,322.01,136.29,256,136.29z M310.95,258.99c-1.3,2.26-3.7,3.65-6.31,3.65h-20.07v78.3c0,4.03-3.26,7.29-7.29,7.29H234.7   c-4.03,0-7.29-3.26-7.29-7.29v-78.3h-20.07c-2.61,0-5.01-1.39-6.31-3.65c-1.31-2.26-1.31-5.04,0-7.29l48.66-84.27   c1.3-2.26,3.7-3.65,6.31-3.65c2.61,0,5.01,1.39,6.31,3.65l48.64,84.27C312.26,253.95,312.26,256.73,310.95,258.99z"/><path class="st0" d="M219.98,248.05h14.73c4.03,0,7.29,3.26,7.29,7.29v78.3h27.99v-78.3c0-4.03,3.26-7.29,7.29-7.29h14.73   L256,185.66L219.98,248.05z"/><path class="st0" d="M452.34,238.36h-23.62c-3.63,0-6.71-2.66-7.22-6.26c-1.79-12.51-5.03-24.86-9.63-36.69   c-1.24-3.19-0.1-6.81,2.75-8.71c0.48-0.32,1.07-0.61,1.61-0.81l19.46-11.35c1.57-0.9,2.11-2.94,1.2-4.52l-15.16-26.26   c-0.6-1.03-1.51-1.41-2.01-1.55c-0.5-0.12-1.45-0.27-2.51,0.33l-20.48,11.82c-3.12,1.79-7.12,1.05-9.37-1.8   c-7.85-9.96-16.84-19.03-26.69-26.96c-3.06-2.46-3.62-6.92-1.27-10.06l11.5-19.95c0.9-1.57,0.36-3.6-1.23-4.51L343.4,75.93   c-1.04-0.59-1.99-0.43-2.51-0.33c-0.5,0.14-1.41,0.51-1.99,1.54l-11.82,20.45c-1.81,3.16-5.67,4.47-9.02,3.13   c-11.88-4.76-24.19-8.13-36.58-10.03c-3.56-0.54-6.2-3.6-6.2-7.21l0.01-23.82c0-1.82-1.48-3.3-3.3-3.3h-30.34   c-1.82,0-3.3,1.48-3.3,3.3v23.62c0,3.63-2.66,6.71-6.27,7.22c-12.51,1.79-24.84,5.03-36.66,9.63c-3.38,1.33-7.19-0.04-8.99-3.18   l-11.88-20.64c-0.93-1.59-2.96-2.12-4.54-1.21l-26.25,15.17c-1.04,0.6-1.41,1.51-1.54,2.01c-0.13,0.49-0.27,1.47,0.33,2.49   l11.82,20.49c1.82,3.14,1.05,7.13-1.79,9.37c-9.99,7.87-19.04,16.85-26.96,26.69c-2.31,2.88-6.42,3.56-9.54,1.61l-20.45-11.82   c-1.04-0.59-2.01-0.45-2.51-0.33c-0.5,0.14-1.41,0.51-1.99,1.54l-15.18,26.27c-0.6,1.04-0.46,2.02-0.33,2.51s0.5,1.41,1.52,2   l20.47,11.81c3.15,1.82,4.47,5.66,3.12,9.03c-4.76,11.87-8.13,24.19-10.03,36.59c-0.54,3.56-3.6,6.19-7.21,6.19l-23.82-0.01   c-1.82,0-3.3,1.48-3.3,3.3v30.33c0,1.82,1.48,3.3,3.3,3.3h23.62c3.63,0,6.71,2.67,7.22,6.27c1.78,12.51,5.01,24.84,9.63,36.66   c1.37,3.5-0.16,7.49-3.53,9.17l-20.28,11.71c-1.04,0.6-1.41,1.51-1.54,2.01c-0.13,0.48-0.27,1.47,0.33,2.51l15.16,26.27   c0.91,1.55,2.91,2.11,4.53,1.21l20.47-11.82c3.11-1.82,7.12-1.07,9.37,1.79c7.89,10,16.87,19.07,26.69,26.96   c2.68,2.15,3.49,5.87,1.95,8.95c-0.24,0.47-0.6,1.03-0.94,1.44l-11.22,19.61c-0.6,1.04-0.46,2.02-0.33,2.51   c0.13,0.5,0.5,1.41,1.52,1.99l26.28,15.18c1.04,0.58,2.04,0.46,2.51,0.33c0.5-0.13,1.42-0.51,2.02-1.54l11.79-20.44   c1.32-2.31,3.77-3.65,6.31-3.65c0.91,0,1.82,0.17,2.71,0.51c11.91,4.76,24.22,8.13,36.61,10.03c3.55,0.54,6.18,3.6,6.18,7.21   l-0.01,23.83c0,1.81,1.48,3.29,3.3,3.29h30.33c1.82,0,3.3-1.48,3.3-3.29v-23.63c0-3.63,2.68-6.71,6.27-7.22   c12.49-1.78,24.84-5.01,36.68-9.63c1.97-0.74,4.12-0.66,6,0.31c1.48,0.77,2.65,2.02,3.32,3.53l11.55,19.97   c0.6,1.04,1.52,1.41,2.01,1.54c0.51,0.14,1.5,0.27,2.51-0.33l26.27-15.16c1.58-0.91,2.12-2.95,1.23-4.52l-11.84-20.48   c-1.82-3.13-1.05-7.12,1.79-9.37c10-7.89,19.07-16.87,26.96-26.69c2.15-2.69,5.88-3.46,8.95-1.95c0.31,0.16,0.64,0.36,0.95,0.57   l20.11,11.58c1.03,0.6,2.01,0.48,2.49,0.34c0.5-0.13,1.42-0.5,2.02-1.54l15.17-26.27c0.9-1.57,0.36-3.6-1.21-4.5l-20.45-11.82   c-3.13-1.81-4.47-5.65-3.12-9.02c4.74-11.89,8.12-24.2,10.01-36.6c0.33-2.12,1.57-4,3.4-5.12c1.3-0.79,2.72-1.14,4.26-1.05h23.37   c1.82,0,3.3-1.48,3.3-3.3v-30.33C455.65,239.84,454.17,238.36,452.34,238.36z M256,390.29c-74.06,0-134.29-60.24-134.29-134.29   S181.94,121.71,256,121.71S390.29,181.95,390.29,256S330.06,390.29,256,390.29z"/><path d="M452.34,223.78h-17.41c-1.7-9.41-4.13-18.7-7.29-27.74l15.36-8.86c8.52-4.93,11.45-15.89,6.52-24.44l-15.16-26.26   c-2.39-4.14-6.24-7.1-10.85-8.34c-4.67-1.26-9.46-0.6-13.59,1.78l-15.11,8.72c-6.18-7.31-12.93-14.13-20.17-20.37l8.89-15.37   c4.91-8.55,1.98-19.5-6.57-24.44L350.7,63.3c-4.16-2.38-8.95-3.04-13.59-1.78c-4.62,1.24-8.46,4.2-10.84,8.33l-8.7,15.07   c-9.06-3.28-18.33-5.81-27.68-7.59V59.66c0-9.86-8.02-17.89-17.89-17.89h-30.34c-9.87,0-17.89,8.03-17.89,17.89v17.41   c-9.4,1.69-18.69,4.12-27.73,7.29l-8.86-15.35c-4.91-8.53-15.91-11.45-24.44-6.55l-26.27,15.17c-4.15,2.39-7.11,6.25-8.35,10.88   c-1.23,4.62-0.58,9.44,1.81,13.56l8.72,15.11c-7.32,6.19-14.14,12.94-20.37,20.17l-15.37-8.87c-4.16-2.39-8.95-3.06-13.59-1.78   c-4.62,1.24-8.46,4.2-10.84,8.33L63.3,161.29c-2.39,4.15-3.03,8.97-1.79,13.59c1.24,4.62,4.2,8.47,8.33,10.85l15.07,8.7   c-3.26,9.06-5.81,18.33-7.58,27.68H59.66c-9.87,0-17.89,8.03-17.89,17.89v30.33c0,9.86,8.02,17.89,17.89,17.89h17.41   c1.68,9.42,4.12,18.7,7.29,27.75l-15.34,8.85c-4.13,2.39-7.09,6.25-8.33,10.87s-0.6,9.44,1.79,13.57l15.16,26.27   c4.94,8.56,15.94,11.51,24.44,6.54l15.1-8.72c6.2,7.32,12.95,14.14,20.17,20.37l-8.86,15.37c-2.39,4.13-3.03,8.96-1.79,13.57   s4.2,8.48,8.33,10.85l26.27,15.17c8.52,4.93,19.49,2.02,24.44-6.54l8.7-15.07c9.07,3.28,18.33,5.81,27.68,7.58v17.69   c0,9.86,8.02,17.88,17.89,17.88h30.33c9.87,0,17.89-8.02,17.89-17.88v-17.42c9.4-1.68,18.69-4.12,27.75-7.28l8.85,15.33   c2.39,4.13,6.24,7.09,10.87,8.33c4.62,1.23,9.42,0.61,13.57-1.78l26.27-15.17c8.55-4.94,11.48-15.9,6.55-24.43l-8.73-15.11   c7.32-6.2,14.14-12.95,20.38-20.17l15.36,8.86c4.15,2.38,8.92,3.02,13.56,1.81c4.62-1.24,8.49-4.2,10.88-8.35l15.18-26.28   c2.38-4.13,3.01-8.96,1.77-13.56c-1.24-4.63-4.2-8.48-8.33-10.85l-15.07-8.7c3.28-9.07,5.81-18.35,7.58-27.69h17.69   c9.87,0,17.89-8.02,17.89-17.88v-30.33C470.23,231.8,462.21,223.78,452.34,223.78z M455.65,272c0,1.82-1.48,3.3-3.3,3.3h-23.37   c-1.54-0.09-2.96,0.26-4.26,1.05c-1.84,1.13-3.08,3-3.4,5.12c-1.89,12.4-5.27,24.71-10.01,36.6c-1.35,3.36-0.01,7.21,3.12,9.02   l20.45,11.82c1.57,0.9,2.11,2.93,1.21,4.5l-15.17,26.27c-0.6,1.04-1.52,1.41-2.02,1.54c-0.48,0.14-1.47,0.26-2.49-0.34   l-20.11-11.58c-0.31-0.21-0.64-0.41-0.95-0.57c-3.06-1.51-6.79-0.74-8.95,1.95c-7.89,9.83-16.96,18.8-26.96,26.69   c-2.85,2.25-3.62,6.24-1.79,9.37l11.84,20.48c0.9,1.57,0.36,3.6-1.23,4.52l-26.27,15.16c-1.01,0.6-1.99,0.47-2.51,0.33   c-0.48-0.13-1.41-0.5-2.01-1.54l-11.55-19.97c-0.67-1.51-1.84-2.76-3.32-3.53c-1.88-0.97-4.03-1.05-6-0.31   c-11.84,4.62-24.19,7.85-36.68,9.63c-3.59,0.51-6.27,3.59-6.27,7.22v23.63c0,1.81-1.48,3.29-3.3,3.29H240   c-1.82,0-3.3-1.48-3.3-3.29l0.01-23.83c0-3.6-2.64-6.67-6.18-7.21c-12.39-1.89-24.7-5.27-36.61-10.03   c-0.88-0.34-1.79-0.51-2.71-0.51c-2.54,0-4.99,1.34-6.31,3.65l-11.79,20.44c-0.6,1.03-1.52,1.41-2.02,1.54   c-0.47,0.13-1.47,0.26-2.51-0.33l-26.28-15.18c-1.03-0.58-1.4-1.5-1.52-1.99c-0.13-0.48-0.27-1.47,0.33-2.51l11.22-19.61   c0.34-0.41,0.7-0.97,0.94-1.44c1.54-3.08,0.73-6.79-1.95-8.95c-9.83-7.89-18.8-16.96-26.69-26.96c-2.25-2.86-6.27-3.62-9.37-1.79   l-20.47,11.82c-1.62,0.9-3.62,0.34-4.53-1.21L75.1,341.97c-0.6-1.04-0.46-2.02-0.33-2.51c0.13-0.5,0.5-1.41,1.54-2.01l20.28-11.71   c3.38-1.68,4.9-5.67,3.53-9.17c-4.62-11.82-7.85-24.16-9.63-36.66c-0.51-3.6-3.59-6.27-7.22-6.27H59.66c-1.82,0-3.3-1.48-3.3-3.3   v-30.33c0-1.82,1.48-3.3,3.3-3.3l23.82,0.01c3.6,0,6.67-2.63,7.21-6.19c1.89-12.4,5.27-24.71,10.03-36.59   c1.35-3.37,0.03-7.21-3.12-9.03L77.12,173.1c-1.03-0.59-1.4-1.51-1.52-2s-0.27-1.47,0.33-2.51l15.18-26.27   c0.58-1.03,1.5-1.4,1.99-1.54c0.5-0.11,1.47-0.26,2.51,0.33l20.45,11.82c3.12,1.95,7.24,1.27,9.54-1.61   c7.92-9.84,16.98-18.82,26.96-26.69c2.85-2.24,3.62-6.23,1.79-9.37l-11.82-20.49c-0.6-1.03-0.46-2-0.33-2.49   c0.13-0.5,0.5-1.41,1.54-2.01l26.25-15.17c1.58-0.91,3.62-0.38,4.54,1.21l11.88,20.64c1.79,3.13,5.61,4.51,8.99,3.18   c11.82-4.6,24.16-7.84,36.66-9.63c3.6-0.51,6.27-3.59,6.27-7.22V59.66c0-1.82,1.48-3.3,3.3-3.3H272c1.82,0,3.3,1.48,3.3,3.3   l-0.01,23.82c0,3.6,2.64,6.67,6.2,7.21c12.39,1.89,24.7,5.27,36.58,10.03c3.35,1.34,7.21,0.03,9.02-3.13l11.82-20.45   c0.58-1.03,1.5-1.4,1.99-1.54c0.51-0.1,1.47-0.26,2.51,0.33l26.27,15.17c1.58,0.91,2.12,2.93,1.23,4.51l-11.5,19.95   c-2.35,3.14-1.79,7.59,1.27,10.06c9.86,7.93,18.85,16.99,26.69,26.96c2.25,2.85,6.25,3.59,9.37,1.8l20.48-11.82   c1.05-0.61,2.01-0.46,2.51-0.33c0.5,0.14,1.41,0.51,2.01,1.55l15.16,26.26c0.91,1.58,0.37,3.62-1.2,4.52l-19.46,11.35   c-0.54,0.2-1.13,0.49-1.61,0.81c-2.85,1.9-3.99,5.52-2.75,8.71c4.6,11.83,7.83,24.17,9.63,36.69c0.51,3.6,3.59,6.26,7.22,6.26   h23.62c1.82,0,3.3,1.48,3.3,3.3V272z"/><path d="M256,121.71c-74.06,0-134.29,60.25-134.29,134.29S181.94,390.29,256,390.29S390.29,330.05,390.29,256   S330.06,121.71,256,121.71z M256,375.71c-66.01,0-119.71-53.7-119.71-119.7c0-66.01,53.7-119.71,119.71-119.71   S375.71,190,375.71,256C375.71,322,322.01,375.71,256,375.71z"/><path d="M262.31,167.43c-1.3-2.26-3.7-3.65-6.31-3.65c-2.61,0-5.01,1.39-6.31,3.65l-48.66,84.27c-1.31,2.26-1.31,5.04,0,7.29   c1.3,2.26,3.7,3.65,6.31,3.65h20.07v78.3c0,4.03,3.26,7.29,7.29,7.29h42.58c4.03,0,7.29-3.26,7.29-7.29v-78.3h20.07   c2.61,0,5.01-1.39,6.31-3.65c1.31-2.26,1.31-5.04,0-7.29L262.31,167.43z M277.28,248.05c-4.03,0-7.29,3.26-7.29,7.29v78.3H242   v-78.3c0-4.03-3.26-7.29-7.29-7.29h-14.73L256,185.66l36.01,62.39H277.28z"/></g></svg>
