<svg xmlns="http://www.w3.org/2000/svg" fill = '#ffffff' viewBox="0 0 64 80" x="0px" y="0px"><g><path d="M59,8H54V7a1,1,0,0,0-1-1H47a1,1,0,0,0-1,1V8H18V7a1,1,0,0,0-1-1H11a1,1,0,0,0-1,1V8H5A1,1,0,0,0,4,9V21a1,1,0,0,0,1,1h5v1a1,1,0,0,0,1,1h6a1,1,0,0,0,1-1V22h7v6H24a1,1,0,0,0-1,1v6a1,1,0,0,0,1,1h1v3a3.0033,3.0033,0,0,1-3,3H18V41a1,1,0,0,0-1-1H11a1,1,0,0,0-1,1v1H5a1,1,0,0,0-1,1V55a1,1,0,0,0,1,1h5v1a1,1,0,0,0,1,1h6a1,1,0,0,0,1-1V56h4A17.019,17.019,0,0,0,39,39V36h1a1,1,0,0,0,1-1V29a1,1,0,0,0-1-1H39V22h7v1a1,1,0,0,0,1,1h6a1,1,0,0,0,1-1V22h5a1,1,0,0,0,1-1V9A1,1,0,0,0,59,8ZM6,20V10h4V20Zm10,2H12V8h4V22ZM6,54V44h4V54Zm10,2H12V42h4ZM37,39A15.0164,15.0164,0,0,1,22,54H18V44h4a5.0059,5.0059,0,0,0,5-5V36H37Zm2-5H25V30H39ZM38,20a1,1,0,0,0-1,1v7H27V21a1,1,0,0,0-1-1H18V10H46V20Zm14,2H48V8h4V22Zm6-2H54V10h4Z"/></g></svg>
