<?xml version="1.0" encoding="UTF-8" standalone="no"?>
<svg
   version="1.1"
   x="0px"
   y="0px"
   viewBox="0 0 60 75"
   style="enable-background:new 0 0 60 60;"
   xml:space="preserve"
   id="svg2482"
   sodipodi:docname="railway.svg"
   inkscape:version="1.2.1 (9c6d41e410, 2022-07-14)"
   xmlns:inkscape="http://www.inkscape.org/namespaces/inkscape"
   xmlns:sodipodi="http://sodipodi.sourceforge.net/DTD/sodipodi-0.dtd"
   xmlns="http://www.w3.org/2000/svg"
   xmlns:svg="http://www.w3.org/2000/svg"><defs
     id="defs2486" /><sodipodi:namedview
     id="namedview2484"
     pagecolor="#ffffff"
     bordercolor="#000000"
     borderopacity="0.25"
     inkscape:showpageshadow="2"
     inkscape:pageopacity="0.0"
     inkscape:pagecheckerboard="0"
     inkscape:deskcolor="#d1d1d1"
     showgrid="false"
     inkscape:zoom="11.16"
     inkscape:cx="25.672043"
     inkscape:cy="37.544803"
     inkscape:window-width="1278"
     inkscape:window-height="1041"
     inkscape:window-x="2504"
     inkscape:window-y="8"
     inkscape:window-maximized="0"
     inkscape:current-layer="svg2482" /><path
     d="M42.46,14.82H17.52c-0.55,0-1,0.45-1,1v16.56c0,0.55,0.45,1,1,1h24.94c0.55,0,1-0.45,1-1V15.82  C43.46,15.27,43.02,14.82,42.46,14.82z M28.99,31.38H18.52V16.82h10.47V31.38z M41.46,31.38H30.99V16.82h10.47V31.38z"
     id="path2468"
     style="fill:#ffffff" /><path
     d="M21.38,34.71c-1.76,0-3.2,1.43-3.2,3.2s1.43,3.2,3.2,3.2s3.2-1.43,3.2-3.2S23.14,34.71,21.38,34.71z M21.38,39.11  c-0.66,0-1.2-0.54-1.2-1.2s0.54-1.2,1.2-1.2s1.2,0.54,1.2,1.2S22.04,39.11,21.38,39.11z"
     id="path2470"
     style="fill:#ffffff" /><path
     d="M38.61,34.71c-1.76,0-3.2,1.43-3.2,3.2s1.43,3.2,3.2,3.2s3.2-1.43,3.2-3.2S40.38,34.71,38.61,34.71z M38.61,39.11  c-0.66,0-1.2-0.54-1.2-1.2s0.54-1.2,1.2-1.2s1.2,0.54,1.2,1.2S39.27,39.11,38.61,39.11z"
     id="path2472"
     style="fill:#ffffff" /><path
     d="M47.51,40.4V14.82c0-2.21-1.79-4-4-4h-3.46v-1.2c0-2-1.63-3.63-3.63-3.63H23.57c-2,0-3.63,1.63-3.63,3.63v1.2h-3.46  c-2.21,0-4,1.79-4,4V40.4c0,2.22,1.81,4.03,4.03,4.03h2.43l-3.35,8.19c-0.21,0.51,0.04,1.09,0.55,1.3c0.51,0.21,1.09-0.03,1.3-0.55  l0.49-1.19H41.9l0.49,1.19c0.16,0.39,0.53,0.62,0.93,0.62c0.13,0,0.25-0.02,0.38-0.08c0.51-0.21,0.76-0.79,0.55-1.3l-2.46-5.99  c0,0,0,0,0,0l-0.9-2.19h2.59C45.7,44.43,47.51,42.63,47.51,40.4z M21.94,9.63c0-0.9,0.73-1.63,1.63-1.63h12.85  c0.9,0,1.63,0.73,1.63,1.63v1.2H21.94V9.63z M41.08,50.19H18.75l0.89-2.18h20.55L41.08,50.19z M20.46,46.01l0.65-1.58h17.62  l0.65,1.58H20.46z M16.51,42.43c-1.12,0-2.03-0.91-2.03-2.03V14.82c0-1.1,0.9-2,2-2h27.03c1.1,0,2,0.9,2,2V40.4  c0,1.12-0.92,2.03-2.04,2.03H16.51z"
     id="path2474"
     style="fill:#ffffff" /><path
     d="M33.63,36.91h-7.25c-0.55,0-1,0.45-1,1s0.45,1,1,1h7.25c0.55,0,1-0.45,1-1S34.18,36.91,33.63,36.91z"
     id="path2476"
     style="fill:#ffffff" /></svg>
