<?xml version="1.0" encoding="UTF-8" standalone="no"?>
<svg
   data-name="Layer 1"
   viewBox="0 0 96 120"
   x="0px"
   y="0px"
   version="1.1"
   id="svg1222"
   sodipodi:docname="shafts_and_tunnles.svg"
   inkscape:version="1.2.1 (9c6d41e410, 2022-07-14)"
   xmlns:inkscape="http://www.inkscape.org/namespaces/inkscape"
   xmlns:sodipodi="http://sodipodi.sourceforge.net/DTD/sodipodi-0.dtd"
   xmlns="http://www.w3.org/2000/svg"
   xmlns:svg="http://www.w3.org/2000/svg">
  <defs
     id="defs1226" />
  <sodipodi:namedview
     id="namedview1224"
     pagecolor="#ffffff"
     bordercolor="#000000"
     borderopacity="0.25"
     inkscape:showpageshadow="2"
     inkscape:pageopacity="0.0"
     inkscape:pagecheckerboard="0"
     inkscape:deskcolor="#d1d1d1"
     showgrid="false"
     inkscape:zoom="6.975"
     inkscape:cx="48.243728"
     inkscape:cy="48.602151"
     inkscape:window-width="1278"
     inkscape:window-height="1041"
     inkscape:window-x="1920"
     inkscape:window-y="0"
     inkscape:window-maximized="0"
     inkscape:current-layer="svg1222" />
  <title
     id="title1212">Artboard 210</title>
  <path
     d="M92,2H4A2,2,0,0,0,2,4V27.72a2,2,0,0,0,4,0V16H85a2,2,0,0,0,0-4H6V6H90V90H83V55.25c0-.45,0-.91,0-1.35a28.35,28.35,0,0,0-2.69-10.75,31.28,31.28,0,0,0-7.59-10.06c-.26-.23-.53-.46-.75-.62A37.23,37.23,0,0,0,48,24a37.28,37.28,0,0,0-23.94,8.46,31.22,31.22,0,0,0-8.34,10.69A28.35,28.35,0,0,0,13,53.9c0,.44,0,.9,0,1.35V90H6V46.55a2,2,0,0,0-4,0V92a2,2,0,0,0,2,2H23.68a2,2,0,0,0,2-2V55.81a14.57,14.57,0,0,1,.09-1.63,15.69,15.69,0,0,1,3.8-8.9,17.25,17.25,0,0,1,2.48-2.41,25.53,25.53,0,0,1,16-5.12c7.64,0,14.37,2.75,18.45,7.55a15.69,15.69,0,0,1,3.78,8.94,12.78,12.78,0,0,1,.09,1.57V86a2,2,0,0,0,4,0V55.81a17,17,0,0,0-.11-2A19.8,19.8,0,0,0,69.49,42.7c-4.84-5.69-12.67-9-21.49-9a29.52,29.52,0,0,0-18.45,6,21.36,21.36,0,0,0-3,3,19.8,19.8,0,0,0-4.72,11.06,18.94,18.94,0,0,0-.11,2.05V90H17V55.25c0-.39,0-.77,0-1.15a24.26,24.26,0,0,1,2.31-9.25,27.39,27.39,0,0,1,7.28-9.32A33.23,33.23,0,0,1,48,28a33.23,33.23,0,0,1,21.43,7.58,6.05,6.05,0,0,1,.58.49,27.14,27.14,0,0,1,6.65,8.78A24.26,24.26,0,0,1,79,54.1c0,.38,0,.76,0,1.15V90H72.32a2,2,0,0,0,0,4H92a2,2,0,0,0,2-2V4A2,2,0,0,0,92,2Z"
     id="path1214"
     style="fill:#ffffff" />
  <path
     d="M4,40.72a2,2,0,0,0,2-2v-3.5a2,2,0,0,0-4,0v3.5A2,2,0,0,0,4,40.72Z"
     id="path1216"
     style="fill:#ffffff" />
</svg>
