<svg xmlns="http://www.w3.org/2000/svg" xmlns:xlink="http://www.w3.org/1999/xlink" version="1.1" x="0px" y="0px" viewBox="0 0 66 82.5" style="enable-background:new 0 0 66 66;" xml:space="preserve"><path d="M62.95,60.24h-0.63V3.69c0-1.32-1.07-2.39-2.46-2.39c-0.75,0-1.42,0.36-1.86,0.9H8.06C7.61,1.65,6.93,1.3,6.14,1.3  c-1.32,0-2.39,1.07-2.39,2.39v56.55H3.19c-0.86,0-1.57,0.7-1.57,1.57v1.33c0,0.87,0.7,1.57,1.57,1.57h5.89  c0.86,0,1.57-0.7,1.57-1.57V61.8c0-0.87-0.7-1.57-1.57-1.57H8.6v-4.61l6.5-5.64v7.28h-0.44c-0.87,0-1.58,0.71-1.58,1.58v1.31  c0,0.87,0.71,1.58,1.58,1.58h5.87c0.87,0,1.58-0.71,1.58-1.58v-1.31c0-0.87-0.71-1.58-1.58-1.58h-0.58V45.77l12.78-11.09L46.12,46.3  v10.97h-0.58c-0.87,0-1.58,0.71-1.58,1.58v1.31c0,0.87,0.71,1.58,1.58,1.58h5.87c0.87,0,1.58-0.71,1.58-1.58v-1.31  c0-0.87-0.71-1.58-1.58-1.58h-0.44v-6.76l6.5,5.64v4.09h-0.7c-0.78,0-1.42,0.64-1.42,1.42v1.62c0,0.78,0.64,1.42,1.42,1.42h6.18  c0.78,0,1.42-0.64,1.42-1.42v-1.62C64.37,60.88,63.74,60.24,62.95,60.24z M32.73,28.79L19.95,17.7V8.79h26.17v8.38L32.73,28.79z   M8.6,11.75V9.84l22.99,19.95l-1.11,0.96L8.6,11.75z M15.09,25.35H8.6v-1.59h6.5V25.35z M8.6,26.85h6.5v12.49H8.6V26.85z M8.6,40.84  h6.5v1.6H8.6V40.84z M15.09,22.25H8.6v-8.51l6.5,5.64V22.25z M18.45,16.4l-1.85-1.61v-6h1.85V16.4z M15.09,13.49L9.68,8.79h5.41  V13.49z M8.6,43.94h6.5v0.16l-6.5,5.64V43.94z M16.59,42.79V20.68l1.85,1.61v18.9L16.59,42.79z M19.95,23.59l9.39,8.15l-9.39,8.15  V23.59z M47.62,15.87V8.79h1.85v5.47L47.62,15.87z M50.97,8.79h4.8l-4.8,4.17V8.79z M57.47,22.25h-6.5v-3.4l6.5-5.64V22.25z   M50.97,23.75h6.47v1.59h-6.47V23.75z M49.47,20.15l-0.03,23.03c0,0.05,0.02,0.09,0.03,0.13l-1.85-1.61V21.76L49.47,20.15z   M46.12,40.41l-9.99-8.67l9.99-8.67V40.41z M50.97,40.84h6.47v1.6h-6.47V40.84z M50.97,39.34V26.85h6.5v12.49H50.97z M59.93,2.8  c0.49,0,0.89,0.4,0.89,0.89v56.55h-1.85V3.69c0,0,0-0.01,0-0.01c0-0.12,0.03-0.25,0.1-0.37C59.21,3,59.53,2.8,59.93,2.8z   M57.47,7.29H8.6V3.7h48.87V7.29z M9.15,61.8v1.33c0,0.04-0.03,0.07-0.07,0.07l-5.96-0.07l0.07-1.4L9.15,61.8z M5.24,60.23V3.69  c0-0.49,0.4-0.89,0.96-0.89C6.56,2.8,6.85,3,7,3.3c0.07,0.13,0.1,0.26,0.1,0.39c0,0,0,0,0,0v56.55H5.24z M8.6,51.72L57.47,9.31v1.92  L15.35,47.77l0,0L8.6,53.64V51.72z M20.6,58.84v1.31c0,0.04-0.03,0.08-0.08,0.08h-5.87c-0.04,0-0.08-0.03-0.08-0.08v-1.31  c0-0.04,0.03-0.08,0.08-0.08h5.87C20.57,58.77,20.6,58.8,20.6,58.84z M18.45,57.27h-1.85v-8.58l1.85-1.61V57.27z M51.49,58.84v1.31  c0,0.04-0.03,0.08-0.08,0.08h-5.87c-0.04,0-0.08-0.03-0.08-0.08v-1.31c0-0.04,0.03-0.08,0.08-0.08h5.87  C51.45,58.77,51.49,58.8,51.49,58.84z M49.47,57.27h-1.85V47.6l1.85,1.61V57.27z M57.47,54.16L33.87,33.69l1.1-0.96l22.49,19.51  V54.16z M50.97,44.62v-0.68h6.5v6.32L50.97,44.62z M62.87,63.2h-6.03v-1.47h6.03V63.2z"/></svg>
