<?xml version="1.0" encoding="UTF-8" standalone="no"?>
<svg
   data-name="Layer 13"
   viewBox="0 0 128 160"
   x="0px"
   y="0px"
   version="1.1"
   id="svg36"
   sodipodi:docname="waterway.svg"
   inkscape:version="1.2.1 (9c6d41e410, 2022-07-14)"
   xmlns:inkscape="http://www.inkscape.org/namespaces/inkscape"
   xmlns:sodipodi="http://sodipodi.sourceforge.net/DTD/sodipodi-0.dtd"
   xmlns="http://www.w3.org/2000/svg"
   xmlns:svg="http://www.w3.org/2000/svg">
  <defs
     id="defs40" />
  <sodipodi:namedview
     id="namedview38"
     pagecolor="#ffffff"
     bordercolor="#000000"
     borderopacity="0.25"
     inkscape:showpageshadow="2"
     inkscape:pageopacity="0.0"
     inkscape:pagecheckerboard="0"
     inkscape:deskcolor="#d1d1d1"
     showgrid="false"
     inkscape:zoom="5.23125"
     inkscape:cx="68.912784"
     inkscape:cy="80.286738"
     inkscape:window-width="1278"
     inkscape:window-height="1041"
     inkscape:window-x="1920"
     inkscape:window-y="0"
     inkscape:window-maximized="0"
     inkscape:current-layer="svg36" />
  <title
     id="title22">bridge, building, construction, river, Waterway, pillar</title>
  <path
     d="M108.776,63.832l13.059-17.561h4.17a1.25,1.25,0,0,0,0-2.5H2a1.25,1.25,0,1,0,0,2.5H5.613L18.671,63.832a2.684,2.684,0,0,1,.527,1.592v26.3a16.146,16.146,0,0,1-6.146-3.071C10.352,86.74,7.56,84.76,2,84.76a1.25,1.25,0,0,0,0,2.5c4.768,0,7.12,1.668,9.609,3.434,2.7,1.915,5.493,3.9,11.058,3.9s8.357-1.981,11.057-3.9c2.489-1.766,4.842-3.434,9.61-3.434s7.12,1.668,9.609,3.434c2.7,1.915,5.493,3.9,11.058,3.9s8.358-1.981,11.058-3.9c2.489-1.766,4.842-3.434,9.61-3.434s7.121,1.668,9.611,3.434c2.7,1.915,5.494,3.9,11.059,3.9s8.358-1.981,11.06-3.9c2.49-1.766,4.841-3.434,9.611-3.434a1.25,1.25,0,0,0,0-2.5c-5.566,0-8.358,1.98-11.058,3.895a15.6,15.6,0,0,1-6.7,3.182V65.424A2.689,2.689,0,0,1,108.776,63.832ZM33.242,65.424v22.55c-.328.226-.65.454-.971.681-2.489,1.767-4.841,3.435-9.609,3.435-.342,0-.646-.027-.964-.043V65.424a5.2,5.2,0,0,0-1.021-3.084L8.728,46.271H46.213L34.264,62.34A5.2,5.2,0,0,0,33.242,65.424ZM91.705,86.187a16.191,16.191,0,0,0-7.041-1.427c-5.565,0-8.357,1.98-11.058,3.895C71.117,90.422,68.765,92.09,64,92.09s-7.121-1.668-9.61-3.435c-2.7-1.915-5.492-3.895-11.057-3.895a15.963,15.963,0,0,0-7.587,1.693V65.424a2.684,2.684,0,0,1,.528-1.592L49.328,46.271H78.12L91.178,63.832a2.684,2.684,0,0,1,.527,1.592ZM106.77,62.341a5.2,5.2,0,0,0-1.02,3.083V92.071c-.143,0-.268.019-.416.019-4.77,0-7.121-1.668-9.612-3.435-.5-.352-1-.706-1.517-1.05V65.424a5.2,5.2,0,0,0-1.021-3.084L81.235,46.271H118.72Z"
     id="path24"
     style="fill:#808080;stroke-width:1.5;stroke-dasharray:none" />
  <path
     d="M126.005,100.76c-5.566,0-8.358,1.98-11.058,3.895-2.491,1.767-4.843,3.435-9.613,3.435s-7.121-1.668-9.612-3.435c-2.7-1.915-5.493-3.895-11.058-3.895s-8.357,1.98-11.058,3.895c-2.489,1.767-4.841,3.435-9.61,3.435s-7.121-1.668-9.61-3.435c-2.7-1.915-5.492-3.895-11.057-3.895s-8.357,1.98-11.058,3.895c-2.489,1.767-4.841,3.435-9.609,3.435s-7.121-1.668-9.61-3.435C10.352,102.74,7.56,100.76,2,100.76a1.25,1.25,0,0,0,0,2.5c4.768,0,7.12,1.668,9.609,3.434,2.7,1.915,5.493,3.9,11.058,3.9s8.357-1.981,11.057-3.9c2.489-1.766,4.842-3.434,9.61-3.434s7.12,1.668,9.609,3.434c2.7,1.915,5.493,3.9,11.058,3.9s8.358-1.981,11.058-3.9c2.489-1.766,4.842-3.434,9.61-3.434s7.121,1.668,9.611,3.434c2.7,1.915,5.494,3.9,11.059,3.9s8.358-1.981,11.06-3.9c2.49-1.766,4.841-3.434,9.611-3.434a1.25,1.25,0,0,0,0-2.5Z"
     id="path26"
     style="fill:#808080;stroke-width:1.5;stroke-dasharray:none" />
  <path
     d="M126.005,116.76c-5.566,0-8.358,1.98-11.058,3.895-2.491,1.767-4.843,3.435-9.613,3.435s-7.121-1.668-9.612-3.435c-2.7-1.915-5.493-3.895-11.058-3.895s-8.357,1.98-11.058,3.895c-2.489,1.767-4.841,3.435-9.61,3.435s-7.121-1.668-9.61-3.435c-2.7-1.915-5.492-3.895-11.057-3.895s-8.357,1.98-11.058,3.895c-2.489,1.767-4.841,3.435-9.609,3.435s-7.121-1.668-9.61-3.435C10.352,118.74,7.56,116.76,2,116.76a1.25,1.25,0,0,0,0,2.5c4.768,0,7.12,1.668,9.609,3.434,2.7,1.915,5.493,3.9,11.058,3.9s8.357-1.981,11.057-3.9c2.489-1.766,4.842-3.434,9.61-3.434s7.12,1.668,9.609,3.434c2.7,1.915,5.493,3.9,11.058,3.9s8.358-1.981,11.058-3.9c2.489-1.766,4.842-3.434,9.61-3.434s7.121,1.668,9.611,3.434c2.7,1.915,5.494,3.9,11.059,3.9s8.358-1.981,11.06-3.9c2.49-1.766,4.841-3.434,9.611-3.434a1.25,1.25,0,0,0,0-2.5Z"
     id="path28"
     style="fill:#808080;stroke-width:1.5;stroke-dasharray:none" />
  <path
     d="M126.005,37.891h-4.254l-6.536-5.338h10.79a1.25,1.25,0,1,0,0-2.5H2a1.25,1.25,0,0,0,0,2.5H12.233L5.7,37.891H2a1.25,1.25,0,1,0,0,2.5h124.01a1.25,1.25,0,0,0,0-2.5Zm-116.357,0,6.091-4.974,6.09,4.974Zm9.6-5.338h12.18l-6.09,4.974Zm9.6,5.338,6.09-4.974,6.09,4.974Zm15.687-.364-6.091-4.974H50.62Zm3.507.364,6.09-4.974,6.09,4.974Zm9.6-5.338H69.815l-6.091,4.974Zm9.6,5.338,6.091-4.974,6.09,4.974Zm9.6-5.338h12.18l-6.09,4.974Zm9.6,5.338,6.09-4.974,6.09,4.974Zm15.687-.364-6.091-4.974H108.2Zm3.507.364,6.09-4.974,6.09,4.974Z"
     id="path30"
     style="fill:#808080;stroke-width:1.5;stroke-dasharray:none" />
</svg>
